<svg width="40" height="35" viewBox="0 0 40 35" fill="none" xmlns="http://www.w3.org/2000/svg">
<path id="Vector" fill-rule="evenodd" clip-rule="evenodd" d="M11.7545 0.105C13.8873 0.0190909 14.5673 0 20 0C25.4327 0 26.1127 0.0206818 28.2436 0.105C30.3745 0.189318 31.8291 0.486818 33.1018 0.917955C34.4345 1.35864 35.6436 2.0475 36.6436 2.93841C37.6618 3.81182 38.4473 4.86818 38.9491 6.03591C39.4436 7.14955 39.7818 8.42227 39.88 10.2836C39.9782 12.153 40 12.748 40 17.5C40 22.2536 39.9764 22.8486 39.88 24.7148C39.7836 26.5761 39.4436 27.8489 38.9491 28.9625C38.4473 30.1304 37.6605 31.1885 36.6436 32.0632C35.6436 32.9541 34.4345 33.6414 33.1018 34.0805C31.8291 34.5132 30.3745 34.8091 28.2473 34.895C26.1127 34.9809 25.4327 35 20 35C14.5673 35 13.8873 34.9793 11.7545 34.895C9.62727 34.8107 8.17273 34.5132 6.9 34.0805C5.56531 33.6413 4.35604 32.9529 3.35636 32.0632C2.33887 31.1892 1.55148 30.1316 1.04909 28.9641C0.556364 27.8505 0.218182 26.5777 0.12 24.7164C0.0218182 22.847 0 22.252 0 17.5C0 12.7464 0.0236363 12.1514 0.12 10.2868C0.216364 8.42227 0.556364 7.14955 1.04909 6.03591C1.55222 4.86831 2.34022 3.81073 3.35818 2.93682C4.35644 2.04671 5.5645 1.35775 6.89818 0.917955C8.17091 0.486818 9.62545 0.190909 11.7527 0.105H11.7545ZM28.0818 3.255C25.9727 3.17068 25.34 3.15318 20 3.15318C14.66 3.15318 14.0273 3.17068 11.9182 3.255C9.96727 3.33295 8.90909 3.61773 8.20364 3.85795C7.27091 4.17614 6.60364 4.55318 5.90364 5.16568C5.24008 5.73054 4.72942 6.41818 4.40909 7.17818C4.13455 7.79545 3.80909 8.72136 3.72 10.4284C3.62364 12.2739 3.60364 12.8275 3.60364 17.5C3.60364 22.1725 3.62364 22.7261 3.72 24.5716C3.80909 26.2786 4.13455 27.2045 4.40909 27.8218C4.72909 28.5807 5.24 29.2695 5.90364 29.8343C6.54909 30.415 7.33636 30.862 8.20364 31.142C8.90909 31.3823 9.96727 31.667 11.9182 31.745C14.0273 31.8293 14.6582 31.8468 20 31.8468C25.3418 31.8468 25.9727 31.8293 28.0818 31.745C30.0327 31.667 31.0909 31.3823 31.7964 31.142C32.7291 30.8239 33.3964 30.4468 34.0964 29.8343C34.76 29.2695 35.2709 28.5807 35.5909 27.8218C35.8655 27.2045 36.1909 26.2786 36.28 24.5716C36.3764 22.7261 36.3964 22.1725 36.3964 17.5C36.3964 12.8275 36.3764 12.2739 36.28 10.4284C36.1909 8.72136 35.8655 7.79545 35.5909 7.17818C35.2273 6.36205 34.7964 5.77818 34.0964 5.16568C33.4508 4.58511 32.6649 4.13829 31.7964 3.85795C31.0909 3.61773 30.0327 3.33295 28.0818 3.255ZM17.4455 22.8948C18.8721 23.4144 20.4607 23.4845 21.9399 23.0932C23.4191 22.7018 24.6971 21.8733 25.5557 20.749C26.4142 19.6248 26.8001 18.2746 26.6474 16.929C26.4946 15.5835 25.8127 14.3261 24.7182 13.3716C24.0204 12.7614 23.1768 12.2942 22.2479 12.0036C21.319 11.713 20.3281 11.6063 19.3464 11.691C18.3647 11.7757 17.4166 12.0498 16.5706 12.4936C15.7245 12.9374 15.0014 13.5398 14.4533 14.2575C13.9052 14.9752 13.5458 15.7902 13.4009 16.644C13.2561 17.4978 13.3294 18.3691 13.6155 19.1951C13.9017 20.0212 14.3936 20.7814 15.0559 21.4211C15.7181 22.0609 16.5342 22.5642 17.4455 22.8948ZM12.7309 11.1395C13.6855 10.3043 14.8188 9.64171 16.066 9.18967C17.3132 8.73762 18.65 8.50496 20 8.50496C21.35 8.50496 22.6868 8.73762 23.934 9.18967C25.1812 9.64171 26.3145 10.3043 27.2691 11.1395C28.2237 11.9748 28.9809 12.9664 29.4975 14.0577C30.0141 15.1491 30.28 16.3188 30.28 17.5C30.28 18.6812 30.0141 19.8509 29.4975 20.9423C28.9809 22.0336 28.2237 23.0252 27.2691 23.8605C25.3412 25.5474 22.7264 26.495 20 26.495C17.2736 26.495 14.6588 25.5474 12.7309 23.8605C10.803 22.1736 9.71995 19.8856 9.71995 17.5C9.71995 15.1144 10.803 12.8264 12.7309 11.1395ZM32.56 9.84455C32.7966 9.64929 32.9859 9.41449 33.1169 9.15405C33.2479 8.89361 33.3178 8.61281 33.3226 8.3283C33.3273 8.04378 33.2668 7.76133 33.1445 7.49765C33.0223 7.23398 32.8408 6.99445 32.6108 6.79324C32.3809 6.59204 32.1071 6.43325 31.8058 6.32628C31.5045 6.21931 31.1817 6.16633 30.8565 6.17047C30.5313 6.17462 30.2104 6.23581 29.9128 6.35043C29.6151 6.46504 29.3468 6.63074 29.1236 6.83773C28.6897 7.24027 28.4521 7.77497 28.4613 8.3283C28.4705 8.88163 28.7258 9.41004 29.173 9.80134C29.6202 10.1926 30.2241 10.416 30.8565 10.4241C31.4889 10.4322 32.0999 10.2243 32.56 9.84455Z" fill="#FFF5E8" fill-opacity="0.81"/>
</svg>
