<svg width="40" height="30" viewBox="0 0 40 30" fill="none" xmlns="http://www.w3.org/2000/svg">
<path id="Vector" d="M35.2883 4.73016C37.0025 3.78396 38.2851 2.29405 38.8966 0.538619C37.2859 1.4211 35.5235 2.04273 33.6858 2.37661C32.4464 1.16603 30.8101 0.365446 29.0292 0.0982804C27.2484 -0.168885 25.4217 0.112195 23.831 0.898194C22.2402 1.68419 20.9735 2.93147 20.2263 4.44777C19.4791 5.96407 19.2927 7.66521 19.696 9.28896C16.4335 9.13772 13.2419 8.35473 10.3284 6.99081C7.41484 5.6269 4.84451 3.71253 2.78421 1.37198C1.73643 3.04066 1.4158 5.01501 1.88746 6.89405C2.35912 8.77308 3.58768 10.4159 5.32365 11.4889C4.02086 11.4502 2.74697 11.1245 1.60818 10.539V10.6343C1.60855 12.384 2.26433 14.0797 3.46431 15.4339C4.6643 16.788 6.33461 17.7173 8.19199 18.064C6.98358 18.3676 5.71605 18.4123 4.48609 18.1947C5.01144 19.6995 6.03252 21.0154 7.40684 21.9586C8.78116 22.9019 10.4401 23.4254 12.1522 23.4562C9.2453 25.5628 5.65537 26.7052 1.96003 26.6996C1.30414 26.6996 0.650158 26.6643 0 26.5954C3.75258 28.8218 8.12005 30.0036 12.5806 29.9995C15.6527 30.019 18.6985 29.4746 21.5409 28.398C24.3833 27.3214 26.9657 25.734 29.138 23.7281C31.3104 21.7222 33.0293 19.3377 34.1951 16.7131C35.3609 14.0886 35.9502 11.2763 35.9289 8.4397C35.9289 8.1113 35.9212 7.78466 35.904 7.45979C37.5112 6.38739 38.8982 5.05885 40 3.53662C38.5027 4.14937 36.9146 4.55168 35.2883 4.73016Z" fill="#FFF5E8" fill-opacity="0.65"/>
</svg>
